<svg width="68" height="81" viewBox="0 0 68 81" fill="none" xmlns="http://www.w3.org/2000/svg">
<path d="M60.5541 74.2605C60.973 74.9859 60.7256 75.9163 59.985 76.3077C53.8439 79.553 46.9628 81.1684 40.0023 80.9861C32.5358 80.7906 25.2687 78.5341 19.0046 74.4662C12.7405 70.3982 7.72333 64.6772 4.5078 57.9357C1.29226 51.1942 0.00362968 43.6948 0.784363 36.2666C1.5651 28.8384 4.38478 21.7708 8.93169 15.8452C13.4786 9.91953 19.5756 5.36669 26.5486 2.69C33.5216 0.0133069 41.099 -0.68296 48.443 0.678174C55.2893 1.94706 61.6842 4.95782 67.0163 9.40903C67.6594 9.94584 67.7079 10.9073 67.1474 11.5298C66.5869 12.1523 65.6297 12.1999 64.9851 11.6651C60.0698 7.58714 54.1864 4.82775 47.8902 3.66083C41.0963 2.40164 34.0864 3.04576 27.6357 5.52196C21.1849 7.99817 15.5446 12.21 11.3383 17.6918C7.13194 23.1736 4.52345 29.7119 3.80119 36.5837C3.07894 43.4555 4.27105 50.3932 7.24574 56.6298C10.2204 62.8663 14.8618 68.1588 20.6568 71.9221C26.4517 75.6854 33.1744 77.7728 40.0817 77.9537C46.4829 78.1213 52.8115 76.6455 58.4672 73.6786C59.209 73.2895 60.1353 73.5351 60.5541 74.2605Z" fill="#9FE870"/>
</svg>
