<svg width="56" height="14" viewBox="0 0 56 14" fill="none" xmlns="http://www.w3.org/2000/svg">
<path d="M0.5 13.4565V3.00689L2.96294 0.543945H9.51485L11.9778 3.00689V13.4565H8.60619V4.65682L7.87687 3.9275H4.60092L3.8716 4.65682V13.4565H0.5ZM1.43257 12.5358H2.96294V4.21445L4.20637 2.99493H8.30729L9.52681 4.20249V12.5358H11.0572V3.46122L9.04856 1.4526H3.45314L1.43257 3.47317V12.5358Z" fill="url(#paint0_linear_2096_8877)"/>
<path d="M17.0673 13.4565L14.6044 10.9935V3.00689L17.0673 0.543945H24.5398L27.0028 3.00689V10.9935L24.5398 13.4565H17.0673ZM17.6173 12.5358H24.0736L26.0822 10.5272V3.46122L24.0736 1.4526H17.5695L15.5489 3.47317V10.4675L17.6173 12.5358ZM18.3705 11.0055L17.0793 9.72618V4.21445L18.3227 2.99493H23.3203L24.5398 4.20249V9.78596L23.3203 11.0055H18.3705ZM18.7173 10.0729H22.8899L23.6192 9.34359V4.65682L22.8899 3.9275H18.7173L17.9879 4.65682V9.34359L18.7173 10.0729Z" fill="url(#paint1_linear_2096_8877)"/>
<path d="M29.6428 13.4565V3.00689L32.1058 0.543945H38.6577L41.1206 3.00689V13.4565H37.749V4.65682L37.0197 3.9275H33.7438L33.0144 4.65682V13.4565H29.6428ZM30.5754 12.5358H32.1058V4.21445L33.3492 2.99493H37.4501L38.6696 4.20249V12.5358H40.2V3.46122L38.1914 1.4526H32.596L30.5754 3.47317V12.5358Z" fill="url(#paint2_linear_2096_8877)"/>
<path d="M43.8668 13.4565V10.0729H51.3991L52.1284 9.34359V9.40337L51.423 8.686H46.2102L43.7472 6.22306V3.00689L46.2102 0.543945H55.2609V3.9275H47.8481L47.1188 4.65682V4.58508L47.8481 5.3144H53.0371L55.5 7.77735V10.9935L53.0371 13.4565H43.8668ZM44.7754 12.5119H52.6306L54.5794 10.5511V8.13603L52.6186 6.19915H47.3221L46.2341 5.11115V4.14271L47.3819 2.99493H54.3642V1.4526H46.6406L44.6798 3.41339V5.82851L46.5808 7.72952H51.8773L53.0251 8.85339V9.82183L51.8773 10.9696H44.7754V12.5119Z" fill="url(#paint3_linear_2096_8877)"/>
<defs>
<linearGradient id="paint0_linear_2096_8877" x1="17.5" y1="1.0002" x2="49.2233" y2="-9.21901" gradientUnits="userSpaceOnUse">
<stop stop-color="#60DBEC"/>
<stop offset="1" stop-color="#9FE870"/>
</linearGradient>
<linearGradient id="paint1_linear_2096_8877" x1="17.5" y1="1.0002" x2="49.2233" y2="-9.21901" gradientUnits="userSpaceOnUse">
<stop stop-color="#60DBEC"/>
<stop offset="1" stop-color="#9FE870"/>
</linearGradient>
<linearGradient id="paint2_linear_2096_8877" x1="17.5" y1="1.0002" x2="49.2233" y2="-9.21901" gradientUnits="userSpaceOnUse">
<stop stop-color="#60DBEC"/>
<stop offset="1" stop-color="#9FE870"/>
</linearGradient>
<linearGradient id="paint3_linear_2096_8877" x1="17.5" y1="1.0002" x2="49.2233" y2="-9.21901" gradientUnits="userSpaceOnUse">
<stop stop-color="#60DBEC"/>
<stop offset="1" stop-color="#9FE870"/>
</linearGradient>
</defs>
</svg>
