<svg width="37" height="36" viewBox="0 0 37 36" fill="none" xmlns="http://www.w3.org/2000/svg">
<path d="M3.55809 22.5303C5.50516 29.0209 11.5282 33.75 18.6566 33.75C27.3605 33.75 34.4167 26.6983 34.4167 18C34.4167 9.30154 27.3605 2.25 18.6566 2.25C10.3043 2.25 3.47015 8.74319 2.93039 16.9536C2.93039 19.3125 2.93039 20.2969 3.55809 22.5303Z" fill="url(#paint0_linear_3271_25327)"/>
<path d="M17.8461 14.1334L13.9896 19.732C13.0805 19.6907 12.1653 19.9479 11.4056 20.4472L2.93726 16.9632C2.93726 16.9632 2.74131 20.1849 3.55793 22.5859L9.54459 25.0545C9.84518 26.397 10.7667 27.5745 12.1263 28.141C14.3507 29.0698 16.9154 28.0112 17.8407 25.7873C18.0815 25.206 18.1938 24.5962 18.1776 23.9879L23.8309 20.0497C27.1331 20.0497 29.817 17.3594 29.817 14.0555C29.817 10.7514 27.1331 8.06348 23.8309 8.06348C20.6414 8.06348 17.6674 10.8465 17.8461 14.1334ZM16.9195 25.4006C16.2033 27.1189 14.2274 27.9342 12.5099 27.219C11.7176 26.8891 11.1194 26.2848 10.7743 25.5642L12.723 26.3713C13.9896 26.8986 15.4428 26.2983 15.9693 25.0329C16.4974 23.7662 15.8983 22.3115 14.6323 21.7842L12.6179 20.9501C13.3952 20.6554 14.2788 20.6445 15.1044 20.9879C15.9368 21.334 16.5826 21.9857 16.9249 22.8185C17.2671 23.6512 17.2658 24.5706 16.9195 25.4006ZM23.8309 18.0488C21.6326 18.0488 19.8429 16.2575 19.8429 14.0555C19.8429 11.8552 21.6326 10.0634 23.8309 10.0634C26.0306 10.0634 27.8203 11.8552 27.8203 14.0555C27.8203 16.2575 26.0306 18.0488 23.8309 18.0488ZM20.8426 14.0494C20.8426 12.3929 22.1846 11.0494 23.8377 11.0494C25.4921 11.0494 26.8341 12.3929 26.8341 14.0494C26.8341 15.7061 25.4921 17.0484 23.8377 17.0484C22.1846 17.0484 20.8426 15.7061 20.8426 14.0494Z" fill="white"/>
<defs>
<linearGradient id="paint0_linear_3271_25327" x1="18.6735" y1="2.25" x2="18.6735" y2="33.75" gradientUnits="userSpaceOnUse">
<stop stop-color="#111D2E"/>
<stop offset="0.21248" stop-color="#051839"/>
<stop offset="0.40695" stop-color="#0A1B48"/>
<stop offset="0.5811" stop-color="#132E62"/>
<stop offset="0.7376" stop-color="#144B7E"/>
<stop offset="0.87279" stop-color="#136497"/>
<stop offset="1" stop-color="#1387B8"/>
</linearGradient>
</defs>
</svg>